:SAMPLES-PER-SECOND 30
:FULLY-SPECIFIED
:DEGREES
466
root  -3.60996 6.29957 16.2195 -42.5422 -2.67962 23.7918
RightUpLeg  -95.517 -11.8051 19.5039
RightLeg  80.8172 14.2215 -24.0733
RightFoot  11.2275 5.38196 -24.7112
RightToes  5.82077e-011 -3.18055e-015 -2.98177e-016
Spine  33.4949 -1.78724 4.54963
Spine1  18.3928 -2.65774 -2.25891
HEad  -17.794 12.1315 18.2213
LeftShoulder1  -3.88251e-019 9.70628e-020 -3.87848e-018
LeftArm  4.08888 54.7535 -27.1088
LeftForeArm  15.7704 -16.2552 -0.426345
LeftHand  -3.09204 -10.391 23.2809
RightShoulder  3.20788 7.78135 16.0456
RightArm  50.9404 -68.1788 -38.3837
RightForeArm  1.42469 24.4714 -13.2297
RightHand  -11.5316 10.0091 -74.2431
LeftUpLeg  -82.9695 6.43519 0.8894
LeftLeg  88.8801 -13.704 6.90846
LeftFoot  34.1018 6.33336 -14.2068
LeftToes  5.91571e-011 -3.44359e-011 -3.93244e-011
467
root  -3.57143 6.28125 16.1912 -41.9994 -1.76677 23.189
RightUpLeg  -96.0764 -12.0118 18.5887
RightLeg  80.5856 14.1137 -24.4654
RightFoot  11.6819 5.47468 -24.6706
RightToes  5.82077e-011 -3.18055e-015 -2.98177e-016
Spine  32.6479 -1.44399 3.66466
Spine1  19.2235 -2.86981 -1.44573
HEad  -17.1521 11.8267 17.7251
LeftShoulder1  -3.88251e-019 9.70628e-020 -3.87848e-018
LeftArm  3.59069 55.794 -26.9495
LeftForeArm  14.2573 -15.2005 -0.43889
LeftHand  -2.76214 -9.52552 22.0913
RightShoulder  3.25089 7.71333 16.4447
RightArm  48.0977 -67.5597 -35.5317
RightForeArm  1.35151 23.5012 -12.7354
RightHand  -11.2499 9.78765 -73.6675
LeftUpLeg  -83.7743 6.28284 -0.195559
LeftLeg  88.5535 -13.6733 7.01863
LeftFoot  34.1621 6.05654 -13.5614
LeftToes  5.91571e-011 -3.44359e-011 -3.93244e-011
468
root  -3.51173 6.25978 16.1441 -41.7353 -1.11843 22.2819
RightUpLeg  -96.2436 -12.3053 17.9655
RightLeg  80.2571 13.9538 -25.0785
RightFoot  12.072 5.4705 -24.2773
RightToes  5.82077e-011 -3.18055e-015 -2.98177e-016
Spine  32.1122 -1.25023 3.06039
Spine1  19.9646 -3.08476 -0.67157
HEad  -16.4412 11.4838 17.1117
LeftShoulder1  -3.88251e-019 9.70628e-020 -3.87848e-018
LeftArm  3.41858 56.8028 -26.6892
LeftForeArm  12.0836 -14.3597 -0.502213
LeftHand  -2.58522 -9.10597 21.321
RightShoulder  3.27866 7.65867 16.7223
RightArm  45.1646 -66.8747 -32.4778
RightForeArm  1.36026 22.4053 -12.1665
RightHand  -10.9831 9.61088 -72.9859
LeftUpLeg  -84.4018 6.23181 -0.95634
LeftLeg  88.3021 -13.6487 7.09295
LeftFoot  34.2289 5.65898 -12.642
LeftToes  5.91571e-011 -3.44359e-011 -3.93244e-011
469
root  -3.41029 6.21853 16.0672 -42.2224 -1.05254 20.7734
RightUpLeg  -95.4635 -12.8404 18.0378
RightLeg  79.8461 13.7488 -25.7325
RightFoot  12.264 5.40963 -23.8381
RightToes  5.82077e-011 -3.18055e-015 -2.98177e-016
Spine  32.3599 -1.27527 3.35993
Spine1  20.5475 -3.18998 -0.0303388
HEad  -15.7847 11.1052 16.5645
LeftShoulder1  -3.88251e-019 9.70628e-020 -3.87848e-018
LeftArm  3.3439 57.6455 -26.4833
LeftForeArm  9.57953 -13.4257 -0.698341
LeftHand  -2.52146 -8.96865 21.0087
RightShoulder  3.33872 7.65462 17.1278
RightArm  42.2229 -65.9951 -29.6152
RightForeArm  1.51998 21.2557 -11.469
RightHand  -10.9881 9.71529 -72.6313
LeftUpLeg  -84.4721 6.20762 -0.771011
LeftLeg  88.2635 -13.6444 7.08792
LeftFoot  34.2092 5.28049 -11.7923
LeftToes  5.91571e-011 -3.44359e-011 -3.93244e-011
470
root  -3.27713 6.17214 16.0074 -42.7422 -1.02501 19.3124
RightUpLeg  -94.7561 -13.4741 18.1896
RightLeg  79.5457 13.5961 -26.1338
RightFoot  12.3717 5.39997 -23.6981
RightToes  5.82077e-011 -3.18055e-015 -2.98177e-016
Spine  32.5733 -1.25969 3.73201
Spine1  21.055 -3.26379 0.541465
HEad  -15.2273 10.6075 16.0137
LeftShoulder1  -3.88251e-019 9.70628e-020 -3.87848e-018
LeftArm  3.1175 58.2723 -26.4714
LeftForeArm  7.7183 -12.0895 -0.933276
LeftHand  -2.43102 -8.68495 20.6844
RightShoulder  3.48227 7.71719 17.9651
RightArm  39.1347 -64.6238 -27.0596
RightForeArm  1.8131 20.0537 -10.6297
RightHand  -11.053 9.84635 -72.4843
LeftUpLeg  -84.5599 6.06089 -0.529701
LeftLeg  88.2923 -13.6494 7.15261
LeftFoot  34.1721 5.0415 -11.2615
LeftToes  5.91571e-011 -3.44359e-011 -3.93244e-011
471
root  -3.13134 6.14256 15.9902 -42.7247 -0.600147 18.3881
RightUpLeg  -94.8678 -13.9903 17.8123
RightLeg  79.4279 13.5315 -26.3716
RightFoot  12.6507 5.42482 -23.55
RightToes  5.82077e-011 -3.18055e-015 -2.98177e-016
Spine  32.1042 -1.05512 3.42264
Spine1  21.626 -3.3738 1.03752
HEad  -14.7086 9.88896 15.1241
LeftShoulder1  -3.88251e-019 9.70628e-020 -3.87848e-018
LeftArm  2.51119 58.8207 -26.729
LeftForeArm  6.36346 -10.2684 -1.11504
LeftHand  -2.31106 -8.26012 20.3131
RightShoulder  3.71555 7.85753 19.235
RightArm  35.5534 -62.7126 -24.6157
RightForeArm  2.46005 18.6307 -9.59444
RightHand  -10.7815 9.63583 -71.8721
LeftUpLeg  -85.0845 5.75826 -0.979446
LeftLeg  88.2733 -13.6506 7.26328
LeftFoot  34.1635 4.87662 -10.8899
LeftToes  5.91571e-011 -3.44359e-011 -3.93244e-011
472
root  -2.95856 6.13159 15.9486 -43.0501 -0.497071 17.2639
RightUpLeg  -94.4834 -14.5388 17.5699
RightLeg  79.2343 13.4288 -26.6369
RightFoot  13.169 5.36819 -22.8606
RightToes  5.82077e-011 -3.18055e-015 -2.98177e-016
Spine  31.9834 -1.01203 3.51971
Spine1  22.1076 -3.37184 1.27063
HEad  -14.1048 8.99177 13.6448
LeftShoulder1  -3.88251e-019 9.70628e-020 -3.87848e-018
LeftArm  1.5585 59.5544 -27.3638
LeftForeArm  4.24876 -8.104 -1.31088
LeftHand  -2.35706 -7.99863 21.1033
RightShoulder  4.00395 8.07297 20.687
RightArm  31.5269 -60.4731 -22.2315
RightForeArm  3.66888 16.8604 -8.39327
RightHand  -10.2632 9.22755 -70.6784
LeftUpLeg  -85.2406 5.43442 -0.997425
LeftLeg  88.3381 -13.6556 7.19164
LeftFoot  34.1469 4.6394 -10.3558
LeftToes  5.91571e-011 -3.44359e-011 -3.93244e-011
473
root  -2.79434 6.13177 15.9129 -43.2534 -0.905714 15.829
RightUpLeg  -93.9997 -14.8265 17.8173
RightLeg  78.9688 13.2853 -26.9901
RightFoot  13.8137 5.22124 -21.7274
RightToes  5.82077e-011 -3.18055e-015 -2.98177e-016
Spine  31.7249 -0.935208 4.00645
Spine1  22.5229 -3.23384 1.5628
HEad  -13.287 8.17553 11.677
LeftShoulder1  -3.88251e-019 9.70628e-020 -3.87848e-018
LeftArm  0.500448 60.6611 -28.5009
LeftForeArm  0.997683 -5.76482 -1.66717
LeftHand  -2.77738 -8.0624 24.5537
RightShoulder  4.32076 8.32945 22.1898
RightArm  27.4754 -57.9312 -19.9596
RightForeArm  5.29225 14.7061 -7.12366
RightHand  -9.99437 9.1035 -69.7025
LeftUpLeg  -85.5685 5.33164 -0.444714
LeftLeg  88.5315 -13.6704 6.99554
LeftFoot  34.2381 4.32514 -9.62091
LeftToes  5.91571e-011 -3.44359e-011 -3.93244e-011
474
root  -2.65789 6.13185 15.9141 -43.0966 -1.53497 14.429
RightUpLeg  -93.8484 -14.8058 18.3425
RightLeg  78.771 13.1745 -27.2891
RightFoot  14.3906 5.09001 -20.7564
RightToes  5.82077e-011 -3.18055e-015 -2.98177e-016
Spine  30.9981 -0.6276 4.32866
Spine1  23.0163 -3.02324 2.04741
HEad  -12.1958 7.63162 9.5664
LeftShoulder1  -3.88251e-019 9.70628e-020 -3.87848e-018
LeftArm  -0.498569 62.1492 -29.9866
LeftForeArm  -2.46661 -3.51909 -2.11651
LeftHand  -3.49428 -8.27702 30.1272
RightShoulder  4.69998 8.62824 23.9298
RightArm  23.5453 -54.7913 -17.6923
RightForeArm  7.32768 11.8766 -5.79706
RightHand  -10.1361 9.35452 -69.5392
LeftUpLeg  -86.2734 5.51962 0.190943
LeftLeg  88.758 -13.6906 6.88178
LeftFoot  34.5194 3.99532 -8.81183
LeftToes  5.91571e-011 -3.44359e-011 -3.93244e-011
475
root  -2.52535 6.12542 15.9439 -43.0068 -1.98936 13.221
RightUpLeg  -93.8066 -14.887 18.6853
RightLeg  78.784 13.1737 -27.4383
RightFoot  14.8579 4.99096 -20.0273
RightToes  5.82077e-011 -3.18055e-015 -2.98177e-016
Spine  30.1363 -0.327654 4.41552
Spine1  23.755 -2.77267 2.21852
HEad  -10.9651 7.11195 7.60577
LeftShoulder1  -3.88251e-019 9.70628e-020 -3.87848e-018
LeftArm  -1.44433 63.9145 -31.3023
LeftForeArm  -5.79772 -1.89799 -2.33501
LeftHand  -4.07051 -8.2078 34.9936
RightShoulder  5.20857 9.03047 26.143
RightArm  19.9191 -50.9957 -15.4237
RightForeArm  10.1614 7.94853 -4.57678
RightHand  -10.2502 9.49651 -69.6346
LeftUpLeg  -86.9109 5.70926 0.564911
LeftLeg  89.0282 -13.7161 6.81079
LeftFoot  34.6575 3.62637 -7.95158
LeftToes  5.91571e-011 -3.44359e-011 -3.93244e-011
476
root  -2.3939 6.10641 15.9816 -43.176 -2.22783 12.0103
RightUpLeg  -93.6393 -15.2149 18.7798
RightLeg  78.9597 13.2526 -27.6211
RightFoot  15.3213 4.81455 -19.0271
RightToes  5.82077e-011 -3.18055e-015 -2.98177e-016
Spine  29.4066 -0.183253 4.62507
Spine1  24.6984 -2.372 1.79134
HEad  -9.92885 6.09993 5.88873
LeftShoulder1  -3.88251e-019 9.70628e-020 -3.87848e-018
LeftArm  -2.33819 65.7771 -32.0522
LeftForeArm  -9.53587 -1.34466 -2.13672
LeftHand  -4.19708 -7.74878 37.1859
RightShoulder  5.81912 9.51506 28.6374
RightArm  16.8619 -47.262 -13.6381
RightForeArm  14.4264 3.4651 -3.7392
RightHand  -9.81887 9.09101 -68.7879
LeftUpLeg  -87.352 5.73181 0.832633
LeftLeg  89.475 -13.7481 6.50992
LeftFoot  34.3278 3.21299 -7.07846
LeftToes  5.91571e-011 -3.44359e-011 -3.93244e-011
477
root  -2.28208 6.07923 16.0093 -43.3154 -2.37672 10.5988
RightUpLeg  -93.4415 -15.6134 18.9039
RightLeg  79.0612 13.2867 -28.0207
RightFoot  15.8119 4.56384 -17.7577
RightToes  5.82077e-011 -3.18055e-015 -2.98177e-016
Spine  28.7759 -0.0326261 5.13302
Spine1  25.5483 -1.7572 1.10429
HEad  -9.34229 4.39221 4.34114
LeftShoulder1  -3.88251e-019 9.70628e-020 -3.87848e-018
LeftArm  -3.02727 67.4609 -32.3173
LeftForeArm  -13.3487 -1.65874 -1.76269
LeftHand  -4.11192 -7.26891 37.8033
RightShoulder  6.35694 9.91517 30.7565
RightArm  15.0959 -44.7363 -12.9647
RightForeArm  19.5289 0.21787 -3.43526
RightHand  -8.77243 8.18908 -66.1753
LeftUpLeg  -87.899 5.61702 1.17535
LeftLeg  90.0055 -13.7696 5.94284
LeftFoot  33.8175 2.86292 -6.36546
LeftToes  5.91571e-011 -3.44359e-011 -3.93244e-011
